<svg width="80" height="80" viewBox="0 0 80 80" fill="none" xmlns="http://www.w3.org/2000/svg">
<circle cx="40" cy="40" r="37" stroke="#B88A00" stroke-width="6"/>
<mask id="path-2-inside-1_152_264" fill="white">
<path d="M49.469 60.9838H30.5C30.2188 60.9838 30 60.765 30 60.4838V52.4838C30 47.0229 33.6406 44.1244 36.0508 42.2028C37.1211 41.3512 38.1289 40.5426 38.1289 39.9919C38.1289 39.4411 37.1172 38.6325 36.0508 37.781C33.6406 35.8591 30 32.9607 30 27.5V19.5C30 19.2188 30.2188 19 30.5 19H49.469C49.7503 19 49.969 19.2188 49.969 19.5V27.5C49.969 32.9219 46.3596 35.7891 43.969 37.691C42.8206 38.6012 41.8284 39.3902 41.8284 39.9918C41.8284 40.5934 42.8167 41.3824 43.969 42.3004C46.3596 44.1988 49.969 47.0699 49.969 52.4914V60.4914C49.969 60.7726 49.7503 60.9914 49.469 60.9914V60.9838ZM31 59.9838H48.969V52.4838C48.969 52.2846 48.969 52.0854 48.9495 51.8822H31.0085C30.9967 52.0815 30.9889 52.2807 30.9889 52.4838V59.9838H31ZM31.1211 50.8822H48.8511C48.2417 46.972 45.4527 44.7533 43.3511 43.0814C41.9409 41.9603 40.8316 41.0814 40.8316 39.9916C40.8316 38.9018 41.941 38.0228 43.3511 36.9135C45.7222 35.0229 48.9722 32.4447 48.9722 27.5151V20.0151H31.0032V27.5151C31.0032 32.4956 34.2844 35.1049 36.6829 37.0151C38.1126 38.1557 39.1438 38.976 39.1438 40.0034C39.1438 41.0346 38.1126 41.8628 36.6829 42.9917C34.5618 44.6831 31.7337 46.9331 31.1243 50.8901L31.1211 50.8822Z"/>
</mask>
<path d="M49.469 60.9838H30.5C30.2188 60.9838 30 60.765 30 60.4838V52.4838C30 47.0229 33.6406 44.1244 36.0508 42.2028C37.1211 41.3512 38.1289 40.5426 38.1289 39.9919C38.1289 39.4411 37.1172 38.6325 36.0508 37.781C33.6406 35.8591 30 32.9607 30 27.5V19.5C30 19.2188 30.2188 19 30.5 19H49.469C49.7503 19 49.969 19.2188 49.969 19.5V27.5C49.969 32.9219 46.3596 35.7891 43.969 37.691C42.8206 38.6012 41.8284 39.3902 41.8284 39.9918C41.8284 40.5934 42.8167 41.3824 43.969 42.3004C46.3596 44.1988 49.969 47.0699 49.969 52.4914V60.4914C49.969 60.7726 49.7503 60.9914 49.469 60.9914V60.9838ZM31 59.9838H48.969V52.4838C48.969 52.2846 48.969 52.0854 48.9495 51.8822H31.0085C30.9967 52.0815 30.9889 52.2807 30.9889 52.4838V59.9838H31ZM31.1211 50.8822H48.8511C48.2417 46.972 45.4527 44.7533 43.3511 43.0814C41.9409 41.9603 40.8316 41.0814 40.8316 39.9916C40.8316 38.9018 41.941 38.0228 43.3511 36.9135C45.7222 35.0229 48.9722 32.4447 48.9722 27.5151V20.0151H31.0032V27.5151C31.0032 32.4956 34.2844 35.1049 36.6829 37.0151C38.1126 38.1557 39.1438 38.976 39.1438 40.0034C39.1438 41.0346 38.1126 41.8628 36.6829 42.9917C34.5618 44.6831 31.7337 46.9331 31.1243 50.8901L31.1211 50.8822Z" fill="black"/>
<path d="M49.469 60.9838H51.469V58.9838H49.469V60.9838ZM36.0508 42.2028L34.8056 40.6377L34.804 40.639L36.0508 42.2028ZM36.0508 37.781L37.2987 36.2181L37.2977 36.2173L36.0508 37.781ZM43.969 37.691L45.2113 39.2584L45.2142 39.2561L43.969 37.691ZM43.969 42.3004L42.7228 43.8647L42.7252 43.8666L43.969 42.3004ZM49.469 60.9914H47.469V62.9914H49.469V60.9914ZM48.969 59.9838V61.9838H50.969V59.9838H48.969ZM48.9495 51.8822L50.9403 51.6908L50.7664 49.8822H48.9495V51.8822ZM31.0085 51.8822V49.8822H29.1227L29.0119 51.7648L31.0085 51.8822ZM30.9889 59.9838H28.9889V61.9838H30.9889V59.9838ZM31.1211 50.8822V48.8822H28.153L29.2674 51.6332L31.1211 50.8822ZM48.8511 50.8822V52.8822H51.1869L50.8272 50.5742L48.8511 50.8822ZM43.3511 43.0814L44.5962 41.5163L44.5957 41.5158L43.3511 43.0814ZM43.3511 36.9135L44.5877 38.4854L44.598 38.4773L43.3511 36.9135ZM48.9722 20.0151H50.9722V18.0151H48.9722V20.0151ZM31.0032 20.0151V18.0151H29.0032V20.0151H31.0032ZM36.6829 37.0151L37.9302 35.4517L37.9289 35.4506L36.6829 37.0151ZM36.6829 42.9917L35.4435 41.422L35.436 41.428L36.6829 42.9917ZM31.1243 50.8901L29.2706 51.6411L31.9961 58.3687L33.101 51.1945L31.1243 50.8901ZM49.469 60.9838V58.9838H30.5V60.9838V62.9838H49.469V60.9838ZM30.5 60.9838V58.9838C31.3233 58.9838 32 59.6605 32 60.4838H30H28C28 61.8696 29.1142 62.9838 30.5 62.9838V60.9838ZM30 60.4838H32V52.4838H30H28V60.4838H30ZM30 52.4838H32C32 48.0716 34.855 45.714 37.2976 43.7666L36.0508 42.2028L34.804 40.639C32.4262 42.5348 28 45.9742 28 52.4838H30ZM36.0508 42.2028L37.296 43.7679C37.8084 43.3602 38.4161 42.8777 38.89 42.414C39.1283 42.1808 39.3972 41.8912 39.618 41.5605C39.8176 41.2617 40.1289 40.7088 40.1289 39.9919H38.1289H36.1289C36.1289 39.757 36.182 39.5819 36.2187 39.4872C36.2553 39.3928 36.2895 39.3422 36.2914 39.3394C36.2948 39.3343 36.2832 39.352 36.2466 39.394C36.2109 39.4349 36.1607 39.4883 36.0925 39.555C35.7949 39.8462 35.3635 40.1938 34.8056 40.6377L36.0508 42.2028ZM38.1289 39.9919H40.1289C40.1289 39.273 39.8157 38.7193 39.6161 38.4212C39.395 38.0909 39.1257 37.8015 38.8876 37.5688C38.4145 37.1065 37.8069 36.6238 37.2987 36.2181L36.0508 37.781L34.8029 39.3439C35.3611 39.7897 35.7925 40.1371 36.0919 40.4296C36.1604 40.4966 36.211 40.5502 36.2469 40.5913C36.2838 40.6335 36.2955 40.6514 36.2922 40.6464C36.2905 40.6438 36.2561 40.5932 36.2194 40.4986C36.1824 40.4037 36.1289 40.228 36.1289 39.9919H38.1289ZM36.0508 37.781L37.2977 36.2173C34.855 34.2695 32 31.912 32 27.5H30H28C28 34.0094 32.4262 37.4487 34.8039 39.3447L36.0508 37.781ZM30 27.5H32V19.5H30H28V27.5H30ZM30 19.5H32C32 20.3233 31.3233 21 30.5 21V19V17C29.1142 17 28 18.1142 28 19.5H30ZM30.5 19V21H49.469V19V17H30.5V19ZM49.469 19V21C48.6457 21 47.969 20.3233 47.969 19.5H49.969H51.969C51.969 18.1142 50.8548 17 49.469 17V19ZM49.969 19.5H47.969V27.5H49.969H51.969V19.5H49.969ZM49.969 27.5H47.969C47.969 31.8725 45.1457 34.1991 42.7238 36.1259L43.969 37.691L45.2142 39.2561C47.5735 37.3791 51.969 33.9713 51.969 27.5H49.969ZM43.969 37.691L42.7267 36.1236C42.1803 36.5566 41.549 37.0545 41.0636 37.5332C40.8176 37.7758 40.5424 38.0771 40.3185 38.4258C40.1047 38.7587 39.8284 39.3026 39.8284 39.9918H41.8284H43.8284C43.8284 40.1927 43.787 40.347 43.7533 40.4399C43.7203 40.5307 43.6883 40.581 43.6843 40.5872C43.6823 40.5903 43.7269 40.5247 43.8725 40.3811C44.1703 40.0873 44.6093 39.7355 45.2113 39.2584L43.969 37.691ZM41.8284 39.9918H39.8284C39.8284 40.6791 40.103 41.222 40.3163 41.5553C40.5394 41.904 40.8139 42.2056 41.0595 42.4487C41.5438 42.9282 42.1748 43.4281 42.7228 43.8647L43.969 42.3004L45.2152 40.7361C44.6109 40.2547 44.1716 39.9011 43.8737 39.6061C43.7281 39.462 43.6835 39.3963 43.6854 39.3991C43.6893 39.4053 43.7212 39.4553 43.7539 39.5458C43.7874 39.6384 43.8284 39.7919 43.8284 39.9918H41.8284ZM43.969 42.3004L42.7252 43.8666C45.1448 45.788 47.969 48.1191 47.969 52.4914H49.969H51.969C51.969 46.0207 47.5744 42.6096 45.2128 40.7342L43.969 42.3004ZM49.969 52.4914H47.969V60.4914H49.969H51.969V52.4914H49.969ZM49.969 60.4914H47.969C47.969 59.6681 48.6457 58.9914 49.469 58.9914V60.9914V62.9914C50.8548 62.9914 51.969 61.8772 51.969 60.4914H49.969ZM49.469 60.9914H51.469V60.9838H49.469H47.469V60.9914H49.469ZM31 59.9838V61.9838H48.969V59.9838V57.9838H31V59.9838ZM48.969 59.9838H50.969V52.4838H48.969H46.969V59.9838H48.969ZM48.969 52.4838H50.969C50.969 52.2989 50.9705 52.0048 50.9403 51.6908L48.9495 51.8822L46.9587 52.0737C46.9675 52.166 46.969 52.2702 46.969 52.4838H48.969ZM48.9495 51.8822V49.8822H31.0085V51.8822V53.8822H48.9495V51.8822ZM31.0085 51.8822L29.0119 51.7648C28.9987 51.9894 28.9889 52.2298 28.9889 52.4838H30.9889H32.9889C32.9889 52.3315 32.9948 52.1735 33.005 51.9997L31.0085 51.8822ZM30.9889 52.4838H28.9889V59.9838H30.9889H32.9889V52.4838H30.9889ZM30.9889 59.9838V61.9838H31V59.9838V57.9838H30.9889V59.9838ZM31.1211 50.8822V52.8822H48.8511V50.8822V48.8822H31.1211V50.8822ZM48.8511 50.8822L50.8272 50.5742C50.0836 45.8028 46.6464 43.1472 44.5962 41.5163L43.3511 43.0814L42.106 44.6465C44.259 46.3594 46.3998 48.1412 46.8749 51.1902L48.8511 50.8822ZM43.3511 43.0814L44.5957 41.5158C43.8486 40.9219 43.3617 40.5287 43.0385 40.1752C42.7247 39.8319 42.8316 39.8063 42.8316 39.9916H40.8316H38.8316C38.8316 41.2667 39.4931 42.2254 40.0865 42.8744C40.6705 43.513 41.4434 44.1198 42.1065 44.647L43.3511 43.0814ZM40.8316 39.9916H42.8316C42.8316 40.1771 42.7247 40.1518 43.0366 39.8116C43.3575 39.4617 43.8434 39.0709 44.5877 38.4854L43.3511 36.9135L42.1145 35.3416C41.4487 35.8654 40.6748 36.4688 40.0885 37.1081C39.4932 37.7572 38.8316 38.7163 38.8316 39.9916H40.8316ZM43.3511 36.9135L44.598 38.4773C46.9256 36.6213 50.9722 33.4995 50.9722 27.5151H48.9722H46.9722C46.9722 31.3899 44.5188 33.4245 42.1042 35.3497L43.3511 36.9135ZM48.9722 27.5151H50.9722V20.0151H48.9722H46.9722V27.5151H48.9722ZM48.9722 20.0151V18.0151H31.0032V20.0151V22.0151H48.9722V20.0151ZM31.0032 20.0151H29.0032V27.5151H31.0032H33.0032V20.0151H31.0032ZM31.0032 27.5151H29.0032C29.0032 33.5496 33.0792 36.7019 35.4369 38.5796L36.6829 37.0151L37.9289 35.4506C35.4896 33.5079 33.0032 31.4416 33.0032 27.5151H31.0032ZM36.6829 37.0151L35.4356 38.5785C36.1941 39.1836 36.6674 39.5675 36.9753 39.9033C37.2691 40.2237 37.1438 40.219 37.1438 40.0034H39.1438H41.1438C41.1438 38.7604 40.5029 37.8319 39.9236 37.2001C39.3585 36.5838 38.6014 35.9872 37.9302 35.4517L36.6829 37.0151ZM39.1438 40.0034H37.1438C37.1438 39.7934 37.2652 39.7924 36.9739 40.1108C36.6693 40.4438 36.1967 40.8272 35.4435 41.422L36.6829 42.9917L37.9223 44.5614C38.5987 44.0273 39.3567 43.4322 39.925 42.811C40.5067 42.1753 41.1438 41.2446 41.1438 40.0034H39.1438ZM36.6829 42.9917L35.436 41.428C33.3689 43.0763 29.89 45.7651 29.1476 50.5857L31.1243 50.8901L33.101 51.1945C33.5774 48.1011 35.7547 46.2899 37.9298 44.5554L36.6829 42.9917ZM31.1243 50.8901L32.978 50.1391L32.9748 50.1312L31.1211 50.8822L29.2674 51.6332L29.2706 51.6411L31.1243 50.8901Z" fill="#B88A00" mask="url(#path-2-inside-1_152_264)"/>
</svg>
