<svg width="80" height="80" viewBox="0 0 80 80" fill="none" xmlns="http://www.w3.org/2000/svg">
<circle cx="40" cy="40" r="37" stroke="#DE3543" stroke-width="6"/>
<path d="M44.0005 17.5H47.7505C49.5443 17.5 51.0005 18.9561 51.0005 20.75V38.96C51.0005 39.0963 50.8868 39.21 50.7505 39.21C50.6141 39.21 50.5005 39.0963 50.5005 38.96V20.75C50.5005 19.2364 49.2641 18 47.7505 18H44.0005C43.8641 18 43.7505 17.8864 43.7505 17.75C43.7505 17.6136 43.8641 17.5 44.0005 17.5Z" fill="#DE3543" stroke="#DE3543"/>
<path d="M20.75 42.2502C20.8864 42.2502 21 42.3639 21 42.5002V52.2502C21.0001 53.7638 22.2365 55.0002 23.75 55.0002H36.3203C36.4567 55.0003 36.5703 55.1139 36.5703 55.2502C36.5702 55.3865 36.4566 55.5002 36.3203 55.5002H23.75C21.9562 55.5002 20.5001 54.044 20.5 52.2502V42.5002C20.5 42.3639 20.6136 42.2502 20.75 42.2502Z" fill="#DE3543" stroke="#DE3543"/>
<path d="M23.7505 17.5H41.0005C41.1368 17.5 41.2505 17.6136 41.2505 17.75C41.2505 17.8864 41.1368 18 41.0005 18H23.7505C22.2369 18 21.0005 19.2364 21.0005 20.75V39.5C21.0004 39.6363 20.8868 39.75 20.7505 39.75C20.6142 39.75 20.5006 39.6363 20.5005 39.5V20.75C20.5005 18.9561 21.9566 17.5 23.7505 17.5Z" fill="#DE3543" stroke="#DE3543"/>
<path d="M48.5 55.7505C48.5811 55.7505 48.6457 55.7784 48.6836 55.812C48.7122 55.8375 48.75 55.8867 48.75 56.0005C48.7499 56.1139 48.7122 56.1625 48.6836 56.188C48.6457 56.2216 48.5811 56.2495 48.5 56.2495C48.4189 56.2495 48.3543 56.2216 48.3164 56.188C48.2878 56.1625 48.2501 56.1139 48.25 56.0005C48.25 55.8867 48.2878 55.8375 48.3164 55.812C48.3543 55.7784 48.4189 55.7505 48.5 55.7505Z" fill="#DE3543" stroke="#DE3543"/>
<path d="M48.5005 46.0005C48.6368 46.0005 48.7505 46.1141 48.7505 46.2505V53.0005C48.7504 53.1367 48.6368 53.2505 48.5005 53.2505C48.3642 53.2505 48.2506 53.1367 48.2505 53.0005V46.2505L48.2554 46.2007C48.2789 46.0875 48.3811 46.0005 48.5005 46.0005Z" fill="#DE3543" stroke="#DE3543"/>
<path d="M48.3003 41.5078H48.5083C54.0221 41.5078 58.5083 45.9942 58.5083 51.5078C58.5083 53.1649 58.1087 54.756 57.3228 56.2207L57.3218 56.2236C57.2577 56.3439 57.1114 56.3904 56.9849 56.3232C56.8646 56.2592 56.8171 56.1129 56.8843 55.9863C57.6273 54.5947 58.0083 53.0823 58.0083 51.5078C58.0083 46.2667 53.7495 42.0078 48.5083 42.0078C43.2671 42.0078 39.0083 46.2666 39.0083 51.5078C39.0085 56.7488 43.2671 61.0078 48.5083 61.0078C50.8311 61.0078 53.0306 60.172 54.7573 58.6523L55.0962 58.3389L55.1021 58.334C55.1945 58.2416 55.3503 58.2424 55.4429 58.3398L55.4526 58.3486C55.5448 58.4411 55.5441 58.5979 55.4468 58.6904L55.4438 58.6924C53.5716 60.5002 51.108 61.5 48.5005 61.5C42.9866 61.5 38.5005 57.0139 38.5005 51.5C38.5005 46.054 42.8771 41.6135 48.2974 41.5049L48.3003 41.5078Z" fill="#DE3543" stroke="#DE3543"/>
<path d="M35.75 22.0002C35.8864 22.0002 36 22.1139 36 22.2502V23.5002H37.25C38.2113 23.5002 39 24.2889 39 25.2502C39 25.3866 38.8864 25.5002 38.75 25.5002C38.6136 25.5002 38.5 25.3866 38.5 25.2502C38.5 24.5616 37.9386 24.0002 37.25 24.0002H36V27.2502H37.25C38.2113 27.2502 39 28.0389 39 29.0002V29.7502C39 30.7116 38.2113 31.5002 37.25 31.5002H36V32.7502C36 32.8866 35.8864 33.0002 35.75 33.0002C35.6136 33.0002 35.5 32.8866 35.5 32.7502V31.5002H34.25C33.2887 31.5002 32.5 30.7116 32.5 29.7502C32.5 29.6139 32.6136 29.5002 32.75 29.5002C32.8864 29.5002 33 29.6139 33 29.7502C33 30.4389 33.5614 31.0002 34.25 31.0002H35.5V27.7502H34.25C33.2887 27.7502 32.5 26.9616 32.5 26.0002V25.2502L32.5088 25.0725C32.5988 24.1936 33.3486 23.5002 34.25 23.5002H35.5V22.2502C35.5 22.1139 35.6136 22.0002 35.75 22.0002ZM36 31.0002H37.25C37.9385 31.0001 38.5 30.4388 38.5 29.7502V29.0002C38.5 28.3117 37.9385 27.7504 37.25 27.7502H36V31.0002ZM34.25 24.0002C33.5614 24.0002 33 24.5616 33 25.2502V26.0002C33 26.6889 33.5614 27.2502 34.25 27.2502H35.5V24.0002H34.25Z" fill="#DE3543" stroke="#DE3543"/>
<path d="M25.25 36.2498H46.25C46.3864 36.2498 46.5 36.3634 46.5 36.4998C46.5 36.6361 46.3864 36.7498 46.25 36.7498H25.25C25.1136 36.7498 25 36.6361 25 36.4998C25 36.3634 25.1136 36.2498 25.25 36.2498Z" fill="#DE3543" stroke="#DE3543"/>
<path d="M25.2505 40.7502H41.0005C41.1368 40.7504 41.2505 40.864 41.2505 41.0002C41.2505 41.1365 41.1368 41.2501 41.0005 41.2502H25.2505C25.1141 41.2502 25.0005 41.1366 25.0005 41.0002C25.0005 40.8639 25.1141 40.7502 25.2505 40.7502Z" fill="#DE3543" stroke="#DE3543"/>
<path d="M25.25 45.2498H37.25C37.3864 45.2498 37.5 45.3634 37.5 45.4998C37.5 45.6361 37.3864 45.7498 37.25 45.7498H25.25C25.1136 45.7498 25 45.6361 25 45.4998C25 45.3804 25.087 45.2782 25.2002 45.2546L25.25 45.2498Z" fill="#DE3543" stroke="#DE3543"/>
<path d="M25.2505 49.7502H35.7505C35.8868 49.7502 36.0005 49.8639 36.0005 50.0002C36.0005 50.1366 35.8868 50.2502 35.7505 50.2502H25.2505C25.1141 50.2502 25.0005 50.1366 25.0005 50.0002C25.0005 49.8809 25.0875 49.7787 25.2007 49.7551L25.2505 49.7502Z" fill="#DE3543" stroke="#DE3543"/>
</svg>
