<svg width="80" height="80" viewBox="0 0 80 80" fill="none" xmlns="http://www.w3.org/2000/svg">
<circle cx="40" cy="40" r="37" stroke="#007D8F" stroke-width="6"/>
<path d="M35.7754 17.7646C45.0731 16.3662 53.8299 20.5862 58.5713 28.4707L59.0703 29.3018L59.458 28.4131C59.8077 27.6106 60.1562 26.8076 60.5049 26.0059C60.705 25.5458 61.0005 25.2972 61.3018 25.1826C61.611 25.065 61.9644 25.0741 62.291 25.1992C62.8973 25.4318 63.358 26.0351 63.2031 26.8564L63.1631 27.0244C62.3548 29.8878 61.9914 32.8317 62.0029 35.7939L62.0098 36.3867C62.0172 36.7611 62.0563 37.1951 62.0811 37.5889C62.1068 37.9984 62.1199 38.3931 62.0859 38.7578C62.0186 39.4797 61.7829 39.9888 61.1855 40.2598C60.8683 40.4038 60.5992 40.4241 60.3604 40.3779C60.1137 40.3302 59.8657 40.2046 59.6123 40.0078C59.2198 39.7029 58.8709 39.2766 58.5322 38.834L58.1953 38.3896C58.1503 38.3301 58.1037 38.2685 58.0596 38.2109L58.0576 38.209L57.335 37.293C55.63 35.17 53.7975 33.1602 51.6377 31.4277L51.6006 31.3984L51.5596 31.376L51.4121 31.2881C51.0956 31.078 50.9705 30.8302 50.9395 30.5986C50.9011 30.3127 50.9965 29.9731 51.2256 29.6602L51.249 29.6279L51.2676 29.5918C51.4623 29.211 51.7799 28.9272 52.1201 28.8154C52.4383 28.711 52.8217 28.7401 53.2324 29.0693L53.2695 29.0996L53.3115 29.1221C53.9162 29.442 54.5242 29.7641 55.1309 30.084L56.8213 30.9756L55.7832 29.3701C51.6445 22.9685 44.014 19.0002 36.2021 20.5771C27.7889 22.275 20.8371 29.3134 20.416 38.1777C20.0083 46.7879 25.263 55.2304 33.7773 57.751C41.6737 60.0897 50.1079 57.2865 55.2969 51.0029L55.7881 50.3838C56.146 49.9163 56.6001 49.7755 57.0303 49.8232C57.5326 49.879 58.0123 50.1937 58.2578 50.6123C58.4862 51.0019 58.5201 51.4886 58.1318 51.9971C56.0943 54.6608 53.4702 56.8789 50.5293 58.5088L46.6611 60.252C42.8243 61.5754 38.6877 61.9007 34.7012 60.96L30.6973 59.5693C22.4386 55.7569 16.6958 47.1544 17.5918 37.8545C18.5344 28.0506 25.8072 19.2647 35.7754 17.7646Z" fill="#007D8F" stroke="#007D8F"/>
<path d="M38.4946 37.1226C39.7889 36.5357 41.313 37.1088 41.8989 38.4009C42.0497 38.7331 42.1213 39.0795 42.1265 39.4233L42.1313 39.7622L42.4478 39.8823C45.2431 40.9514 48.0395 42.0201 50.8354 43.0884C50.9927 43.1486 51.0587 43.2384 51.0894 43.3228C51.1246 43.4197 51.1251 43.5482 51.0767 43.6772C51.0282 43.8065 50.9438 43.9019 50.856 43.9497C50.7803 43.9907 50.6734 44.0137 50.5161 43.9536C47.7503 42.8977 44.9857 41.8396 42.2202 40.7827L41.8599 40.645L41.6353 40.9585C41.3774 41.3184 41.0391 41.616 40.6196 41.8062H40.6187C39.3266 42.3925 37.8031 41.8208 37.2153 40.5259C36.6286 39.2335 37.2012 37.7094 38.4946 37.1226Z" fill="#007D8F" stroke="#007D8F"/>
</svg>
