<svg width="32" height="26" viewBox="0 0 32 26" fill="none" xmlns="http://www.w3.org/2000/svg">
<path d="M28.4 0.5C29.2222 0.5 30.0107 0.82924 30.592 1.41529C31.1734 2.00134 31.5 2.7962 31.5 3.625V22.375C31.5 23.2038 31.1734 23.9987 30.592 24.5847C30.0107 25.1708 29.2222 25.5 28.4 25.5H3.6C2.77783 25.5 1.98933 25.1708 1.40797 24.5847C0.826606 23.9987 0.5 23.2038 0.5 22.375V3.625C0.5 2.7962 0.826606 2.00134 1.40797 1.41529C1.98933 0.82924 2.77783 0.5 3.6 0.5H28.4ZM14.45 14.5625H11.35V17.6875H14.45V14.5625ZM26.85 14.5625H17.55V17.6875H26.85V14.5625ZM8.25 8.3125H5.15V11.4375H8.25V8.3125ZM26.85 8.3125H11.35V11.4375H26.85V8.3125Z" fill="#317500"/>
</svg>
