<svg width="22" height="24" viewBox="0 0 22 24" fill="none" xmlns="http://www.w3.org/2000/svg">
<path d="M8.50021 6.9975C9.33021 6.9975 10.0002 7.6675 10.0002 8.4975C10.0002 9.3275 9.33021 9.99751 8.50021 9.99751C7.67021 9.99751 7.00021 9.3275 7.00021 8.4975C7.00021 7.6675 7.67021 6.9975 8.50021 6.9975ZM13.5002 13.9975C14.3302 13.9975 15.0002 14.6675 15.0002 15.4975C15.0002 16.3275 14.3302 16.9975 13.5002 16.9975C12.6702 16.9975 12.0002 16.3275 12.0002 15.4975C12.0002 14.6675 12.6702 13.9975 13.5002 13.9975ZM7.41021 16.9975L6.00021 15.5875L14.5902 6.9975L16.0002 8.4075L7.41021 16.9975ZM17.6502 2.8475L18.2602 6.7075L21.7702 8.4975L20.0002 11.9975L21.7802 15.4975L18.2402 17.2875L17.6302 21.1475L13.7402 20.5375L10.9702 23.3075L8.19021 20.4975L4.33021 21.1375L3.71021 17.2475L0.220215 15.4675L2.00021 11.9675L0.230215 8.4975L3.74021 6.6875L4.35021 2.8675L8.22021 3.4975L11.0002 0.692505L13.7602 3.4575L17.6502 2.8475ZM19.1002 9.36751L16.5002 7.9975L16.0002 5.1075L13.1002 5.5275L11.0002 3.4975L8.90021 5.5275L6.00021 5.1075L5.50021 7.9975L2.90021 9.36751L4.20021 11.9975L2.90021 14.6275L5.50021 15.9975L6.00021 18.8875L8.90021 18.4675L11.0002 20.4975L13.1002 18.4675L16.0002 18.8875L16.5002 15.9975L19.1002 14.6275L17.8002 11.9975L19.1002 9.36751Z" fill="#317500"/>
</svg>
