<svg width="24" height="26" viewBox="0 0 24 26" fill="none" xmlns="http://www.w3.org/2000/svg">
<path d="M20.208 2.526H18.945V0H16.419V2.526H6.315V0H3.789V2.526H2.526C1.1367 2.526 0 3.6627 0 5.052V22.734C0 24.1233 1.1367 25.26 2.526 25.26H13.893C13.1352 24.6285 12.5037 23.7444 11.9985 22.734H2.526V10.104H20.208V12.1248C21.0921 12.2511 21.9762 12.5037 22.734 13.0089V5.052C22.734 3.6627 21.5973 2.526 20.208 2.526ZM20.208 7.578H2.526V5.052H20.208M18.945 14.5245C20.3343 14.5245 21.5973 15.0297 22.4814 16.0401L23.997 14.5245V19.5765H18.945L21.2184 17.3031C20.5869 16.7979 19.8291 16.419 18.945 16.419C17.1768 16.419 15.7875 17.8083 15.7875 19.5765C15.7875 21.3447 17.1768 22.734 18.945 22.734C19.9554 22.734 20.8395 22.2288 21.471 21.471H23.6181C22.8603 23.3655 21.0921 24.6285 18.945 24.6285C16.1664 24.6285 13.893 22.3551 13.893 19.5765C13.893 16.7979 16.1664 14.5245 18.945 14.5245Z" fill="#317500"/>
</svg>
