<svg width="60" height="60" viewBox="0 0 60 60" fill="none" xmlns="http://www.w3.org/2000/svg">
<circle cx="30" cy="30" r="30" fill="#E1FFA8"/>
<path d="M18 21H21V39H18V21ZM22.5 21H24V39H22.5V21ZM25.5 21H30V39H25.5V21ZM31.5 21H33V39H31.5V21ZM36 21H39V39H36V21ZM40.5 21H42V39H40.5V21ZM15 18V24H12V18C12 17.2044 12.3161 16.4413 12.8787 15.8787C13.4413 15.3161 14.2044 15 15 15H21V18H15ZM45 15C45.7957 15 46.5587 15.3161 47.1213 15.8787C47.6839 16.4413 48 17.2044 48 18V24H45V18H39V15H45ZM15 36V42H21V45H15C14.2044 45 13.4413 44.6839 12.8787 44.1213C12.3161 43.5587 12 42.7956 12 42V36H15ZM45 42V36H48V42C48 42.7956 47.6839 43.5587 47.1213 44.1213C46.5587 44.6839 45.7957 45 45 45H39V42H45Z" fill="#317500"/>
</svg>
