<svg width="30" height="26" viewBox="0 0 30 26" fill="none" xmlns="http://www.w3.org/2000/svg">
<path d="M30 12.6316C30 19.607 24.2429 25.2632 17.1429 25.2632C13.7286 25.2632 10.4571 23.9439 8 21.614L10.1429 19.5088C11.9571 21.4035 14.4857 22.4561 17.1429 22.4561C26.0571 22.4561 30.5143 11.8737 24.2143 5.68421C17.9143 -0.505263 7.14286 3.88772 7.14286 12.6316H11.4286L5.71428 18.2456H5.57143L0 12.6316H4.28571C4.28571 5.65614 10.0429 0 17.1429 0C24.2429 0 30 5.65614 30 12.6316Z" fill="#317500"/>
<path d="M13.4209 14.9999H14.9998C14.9998 15.8526 16.0814 16.5789 17.3683 16.5789C18.6551 16.5789 19.7367 15.8526 19.7367 14.9999C19.7367 14.1315 18.9156 13.8157 17.1788 13.3973C15.5051 12.9789 13.4209 12.4578 13.4209 10.2631C13.4209 8.84993 14.5814 7.64993 16.1841 7.2473V5.52625H18.5525V7.2473C20.1551 7.64993 21.3156 8.84993 21.3156 10.2631H19.7367C19.7367 9.41046 18.6551 8.68414 17.3683 8.68414C16.0814 8.68414 14.9998 9.41046 14.9998 10.2631C14.9998 11.1315 15.8209 11.4473 17.5577 11.8657C19.2314 12.2841 21.3156 12.8052 21.3156 14.9999C21.3156 16.4131 20.1551 17.6131 18.5525 18.0157V19.7368H16.1841V18.0157C14.5814 17.6131 13.4209 16.4131 13.4209 14.9999Z" fill="#317500"/>
</svg>
