<svg width="23" height="26" viewBox="0 0 23 26" fill="none" xmlns="http://www.w3.org/2000/svg">
<path d="M17.8663 12.4048V14.1905C21.5596 14.1905 23.7593 18.4167 21.7217 21.5833L20.4597 20.2857C21.4091 18.3095 20.0082 15.9762 17.8663 15.9762V17.7619L15.2614 15.0833L17.8663 12.4048ZM17.8663 25.5V23.7143C14.1731 23.7143 11.9734 19.4881 14.011 16.3214L15.273 17.619C14.3236 19.5952 15.7245 21.9286 17.8663 21.9286V20.1429L20.4713 22.8214L17.8663 25.5ZM19.0241 2.88095H17.8663V0.5H15.5508V2.88095H6.28878V0.5H3.97327V2.88095H2.81551C2.2014 2.88095 1.61244 3.1318 1.1782 3.57832C0.743955 4.02483 0.5 4.63044 0.5 5.2619V21.9286C0.5 22.56 0.743955 23.1656 1.1782 23.6122C1.61244 24.0587 2.2014 24.3095 2.81551 24.3095H13.2353C12.4944 23.6548 11.9155 22.8452 11.4987 21.9286H2.81551V8.83333H19.0241V11.9167C19.8461 12.0476 20.6334 12.3333 21.3396 12.7738V5.2619C21.3396 4.63044 21.0956 4.02483 20.6614 3.57832C20.2272 3.1318 19.6382 2.88095 19.0241 2.88095Z" fill="#317500"/>
</svg>
