<svg width="26" height="26" viewBox="0 0 26 26" fill="none" xmlns="http://www.w3.org/2000/svg">
<path d="M25.2337 17.5415L22.0404 15.4303C21.9087 15.3435 21.7475 15.3125 21.5925 15.3435C21.4375 15.3745 21.301 15.4675 21.2142 15.5993L20.6484 16.4549C19.7835 15.8814 18.4767 15.0257 17.3979 14.3514C15.3052 13.0446 13.8109 13.5887 11.3383 14.4909C10.8841 14.6568 10.3896 14.8366 9.84399 15.0226V15.021C9.07049 15.2907 8.55894 16.0286 8.5791 16.8486C7.86294 16.5727 7.08789 16.196 6.32523 15.8209C4.08533 14.7203 1.96805 13.6802 0.819231 15.018C0.571213 15.3094 0.459605 15.6923 0.512308 16.0705C0.566562 16.4611 0.786679 16.8099 1.11529 17.0269L8.55424 21.9456C9.22543 22.3502 10.002 22.547 10.7864 22.5083C11.6653 22.4804 12.5427 22.3843 13.4077 22.2215C14.5671 21.9503 15.7654 21.8945 16.945 22.0557L16.6753 22.4649H16.6738C16.4939 22.7393 16.5699 23.1082 16.8427 23.2895L20.0375 25.4008C20.1352 25.4659 20.2483 25.5 20.3646 25.5C20.5661 25.5 20.7521 25.4008 20.8622 25.2334L25.4011 18.3678C25.4894 18.2361 25.5204 18.0749 25.4879 17.9199C25.4569 17.7648 25.3654 17.6299 25.2337 17.5415ZM13.2189 21.0448C11.6889 21.2913 10.1078 21.5455 9.21173 20.9518L1.77278 16.0331L1.77123 16.0346C1.72782 16.0052 1.69992 15.9587 1.69217 15.9075C1.68597 15.8672 1.69682 15.8254 1.72162 15.7944C2.26881 15.1573 4.14446 16.0765 5.79983 16.8903L5.80138 16.8887C7.06008 17.5972 8.41954 18.1102 9.83157 18.4109C9.83777 18.4125 9.84398 18.4171 9.85018 18.4187C9.89513 18.428 9.94008 18.4342 9.98659 18.4342C10.0036 18.4342 10.0191 18.4311 10.0346 18.4295C10.1617 18.4419 10.2904 18.4481 10.4175 18.4466L14.5239 18.0932V18.0947C14.6805 18.0808 14.8262 18.0048 14.9285 17.8839C15.0292 17.763 15.0788 17.608 15.0649 17.4499C15.054 17.2917 14.9796 17.1445 14.8587 17.0422C14.7363 16.9414 14.5797 16.8918 14.4216 16.9089L10.3525 17.2592C10.2564 17.2577 10.1603 17.2515 10.0642 17.2406C9.8859 17.2049 9.76034 17.0468 9.76499 16.867C9.73864 16.5493 9.9293 16.2547 10.2285 16.1478C10.7819 15.9587 11.2841 15.7757 11.7445 15.6068C14.0945 14.7511 15.1671 14.3589 16.7652 15.3588C17.8347 16.0269 19.1322 16.8779 19.9894 17.4468L17.6255 21.0213C16.3373 20.5516 14.7549 20.7983 13.2189 21.0448ZM20.1975 24.0799L17.9964 22.6243L21.3043 17.6207L21.312 17.613L21.3167 17.6021L21.8809 16.7496L24.0821 18.2051L20.1975 24.0799Z" fill="#317500"/>
<path d="M7.09587 7.8875C7.39194 7.99911 7.6756 8.13707 7.94378 8.30294C8.229 8.50135 8.25535 8.64706 8.20574 8.87957C8.15304 9.09039 7.99958 9.2609 7.79654 9.33684C7.65548 9.39574 7.50201 9.42054 7.34856 9.40969H7.34546H7.34701C7.19354 9.39729 7.04628 9.34924 6.91609 9.26863L6.25573 8.85319C6.12242 8.76638 5.95966 8.73693 5.80465 8.77259C5.64964 8.80669 5.51478 8.90125 5.42953 9.0361C5.34582 9.17096 5.31792 9.33373 5.35357 9.48873C5.39077 9.64374 5.48688 9.77705 5.62174 9.86075L6.28055 10.2762V10.2746C6.42936 10.3645 6.58748 10.4359 6.75333 10.487V11.1086C6.75333 11.4372 7.01995 11.7038 7.34858 11.7038C7.6772 11.7038 7.94382 11.4372 7.94382 11.1086V10.532C8.05078 10.5072 8.15619 10.4746 8.25849 10.4343C8.82274 10.2095 9.23973 9.72125 9.36993 9.12756C9.54199 8.42847 9.23817 7.69834 8.62124 7.32476C8.28641 7.11085 7.92988 6.93104 7.55631 6.78996C6.46348 6.33115 6.3782 6.17456 6.51618 5.75602C6.59058 5.56226 6.75024 5.4119 6.95023 5.34991C7.2308 5.2507 7.54083 5.2817 7.79504 5.43671L8.44917 5.84751H8.44762C8.72664 6.02268 9.09401 5.93897 9.26917 5.65995C9.44433 5.38092 9.36063 5.01355 9.08161 4.83994L8.42902 4.43073C8.27711 4.33617 8.11435 4.26177 7.94382 4.20907V3.58438C7.94382 3.25575 7.6772 2.98914 7.34858 2.98914C7.01996 2.98914 6.75334 3.25575 6.75334 3.58438V4.18117C6.68513 4.19822 6.61537 4.20442 6.54872 4.22922C6.00308 4.41213 5.57372 4.83998 5.38613 5.38407C4.86994 6.95277 6.26344 7.53873 7.09587 7.8875Z" fill="#317500"/>
<path d="M7.34676 14.1935C9.16194 14.1935 10.9043 13.4727 12.1877 12.1877C13.4727 10.9042 14.1935 9.1634 14.1935 7.34676C14.1935 5.53159 13.4727 3.78927 12.1877 2.50585C10.9042 1.2208 9.16341 0.5 7.34676 0.5C5.53159 0.5 3.78927 1.2208 2.50585 2.50585C1.2208 3.78935 0.5 5.53167 0.5 7.34676C0.50155 9.16193 1.2239 10.9027 2.5074 12.1861C3.7909 13.4695 5.53171 14.192 7.34676 14.1935ZM7.34676 1.69025C9.63472 1.69025 11.6964 3.06831 12.5722 5.18266C13.448 7.29545 12.9644 9.72912 11.3461 11.3458C9.72932 12.9641 7.29565 13.4478 5.18294 12.5719C3.06859 11.6961 1.69053 9.63448 1.69053 7.34648C1.69363 4.22455 4.22479 1.69342 7.34676 1.69025Z" fill="#317500"/>
</svg>
