<svg width="26" height="26" viewBox="0 0 26 26" fill="none" xmlns="http://www.w3.org/2000/svg">
<path d="M19.9948 19.6241C19.5125 19.6252 19.0348 19.5307 18.5891 19.3462C18.1435 19.1617 17.7388 18.8908 17.3984 18.5491L13.6484 14.7991C13.5156 14.673 13.3395 14.6027 13.1564 14.6027C12.9733 14.6027 12.7972 14.673 12.6645 14.7991L8.90018 18.5634C8.55989 18.9052 8.15522 19.1763 7.70956 19.3608C7.2639 19.5453 6.78609 19.6396 6.30374 19.6384H5.56445L10.3145 24.3884C11.7966 25.8705 14.202 25.8705 15.6841 24.3884L20.4466 19.6241H19.9948ZM6.30374 6.35978C7.28589 6.35978 8.20732 6.74192 8.90018 7.43478L12.6645 11.1991C12.7292 11.2639 12.806 11.3153 12.8905 11.3503C12.9751 11.3854 13.0658 11.4035 13.1573 11.4035C13.2489 11.4035 13.3395 11.3854 13.4241 11.3503C13.5087 11.3153 13.5855 11.2639 13.6502 11.1991L17.4002 7.44907C17.7403 7.10742 18.1446 6.83653 18.59 6.65202C19.0353 6.46751 19.5128 6.37304 19.9948 6.37406H20.4466L15.6841 1.61155C14.9719 0.899811 14.0062 0.5 12.9993 0.5C11.9924 0.5 11.0267 0.899811 10.3145 1.61155L5.56445 6.36156L6.30374 6.35978Z" fill="#317500"/>
<path d="M24.3876 10.3134L21.5091 7.4348C21.4444 7.46134 21.3753 7.47528 21.3055 7.47587H19.9966C19.3198 7.47587 18.6573 7.75087 18.1805 8.22945L14.4305 11.9795C14.2637 12.1471 14.0654 12.2801 13.8471 12.3709C13.6287 12.4617 13.3946 12.5084 13.1581 12.5084C12.9217 12.5084 12.6875 12.4617 12.4692 12.3709C12.2508 12.2801 12.0526 12.1471 11.8858 11.9795L8.12153 8.21338C7.63858 7.73241 6.98526 7.46158 6.30367 7.4598H4.69652C4.6299 7.45927 4.56393 7.44656 4.50188 7.4223L1.61259 10.3134C0.13044 11.7955 0.13044 14.2009 1.61259 15.6848L4.50188 18.5741C4.56324 18.5494 4.6286 18.5361 4.69474 18.5348H6.30367C6.98224 18.5348 7.64296 18.2616 8.12153 17.783L11.884 14.017C12.2273 13.6901 12.6832 13.5078 13.1573 13.5078C13.6313 13.5078 14.0872 13.6901 14.4305 14.017L18.1805 17.767C18.6573 18.2455 19.3198 18.5188 19.9966 18.5188H21.3055C21.3769 18.5188 21.4466 18.5366 21.5091 18.5616L24.3876 15.683C25.8698 14.2009 25.8698 11.7955 24.3876 10.3134Z" fill="#317500"/>
</svg>
