<svg width="81" height="81" viewBox="0 0 81 81" fill="none" xmlns="http://www.w3.org/2000/svg">
<g clip-path="url(#clip0_616_4493)">
<path d="M45.5625 1.58337V80.4167" stroke="#8EDB00" stroke-width="3" stroke-linecap="round" stroke-linejoin="round"/>
<path d="M62.0156 14.7274H33.5391C30.0146 14.7274 26.6345 16.1114 24.1423 18.575C21.6501 21.0385 20.25 24.3798 20.25 27.8637C20.25 31.3477 21.6501 34.689 24.1423 37.1525C26.6345 39.616 30.0146 41 33.5391 41H52.5234C56.0479 41 59.428 42.384 61.9202 44.8476C64.4124 47.3111 65.8125 50.6524 65.8125 54.1364C65.8125 57.6203 64.4124 60.9616 61.9202 63.4251C59.428 65.8887 56.0479 67.2727 52.5234 67.2727H20.25" stroke="#8EDB00" stroke-width="3" stroke-linecap="round" stroke-linejoin="round"/>
</g>
<defs>
<clipPath id="clip0_616_4493">
<rect width="81" height="81" fill="white"/>
</clipPath>
</defs>
</svg>
