<svg width="81" height="81" viewBox="0 0 81 81" fill="none" xmlns="http://www.w3.org/2000/svg">
<path d="M74.2498 57.105V67.23C74.2536 68.1699 74.0611 69.1003 73.6846 69.9615C73.308 70.8227 72.7557 71.5958 72.0631 72.2313C71.3705 72.8667 70.5528 73.3505 69.6624 73.6516C68.772 73.9527 67.8285 74.0646 66.8923 73.98C56.5069 72.8515 46.531 69.3027 37.7661 63.6187C29.6115 58.437 22.6978 51.5233 17.5161 43.3687C11.8123 34.564 8.26266 24.5396 7.15484 14.1075C7.0705 13.1742 7.18141 12.2335 7.48052 11.3454C7.77964 10.4574 8.26039 9.64129 8.89217 8.94918C9.52395 8.25708 10.2929 7.70411 11.1501 7.32547C12.0073 6.94684 12.934 6.75084 13.8711 6.74996H23.9961C25.634 6.73384 27.2219 7.31385 28.4638 8.38188C29.7057 9.44992 30.5168 10.9331 30.7461 12.555C31.1734 15.7952 31.966 18.9767 33.1086 22.0387C33.5627 23.2467 33.6609 24.5595 33.3918 25.8217C33.1226 27.0838 32.4972 28.2423 31.5898 29.16L27.3036 33.4462C32.1081 41.8957 39.1041 48.8917 47.5536 53.6962L51.8398 49.41C52.7575 48.5026 53.916 47.8772 55.1781 47.608C56.4402 47.3389 57.7531 47.4371 58.9611 47.8912C62.0231 49.0338 65.2046 49.8264 68.4448 50.2537C70.0843 50.485 71.5816 51.3108 72.6519 52.574C73.7222 53.8372 74.2909 55.4498 74.2498 57.105Z" stroke="#8EDB00" stroke-width="3" stroke-linecap="round" stroke-linejoin="round"/>
</svg>
