<svg width="81" height="81" viewBox="0 0 81 81" fill="none" xmlns="http://www.w3.org/2000/svg">
<path d="M70.875 33.75C70.875 57.375 40.5 77.625 40.5 77.625C40.5 77.625 10.125 57.375 10.125 33.75C10.125 25.694 13.3252 17.968 19.0216 12.2716C24.718 6.57521 32.444 3.375 40.5 3.375C48.556 3.375 56.2819 6.57521 61.9784 12.2716C67.6748 17.968 70.875 25.694 70.875 33.75Z" stroke="#8EDB00" stroke-width="3" stroke-linecap="round" stroke-linejoin="round"/>
<path d="M40.5 43.875C46.0919 43.875 50.625 39.3419 50.625 33.75C50.625 28.1581 46.0919 23.625 40.5 23.625C34.9081 23.625 30.375 28.1581 30.375 33.75C30.375 39.3419 34.9081 43.875 40.5 43.875Z" stroke="#8EDB00" stroke-width="3" stroke-linecap="round" stroke-linejoin="round"/>
</svg>
